<?xml version="1.0" encoding="iso-8859-1"?>
<!-- Generator: Adobe Illustrator 19.0.0, SVG Export Plug-In . SVG Version: 6.00 Build 0)  -->
<svg xmlns="http://www.w3.org/2000/svg" xmlns:xlink="http://www.w3.org/1999/xlink" version="1.1" id="Capa_1" x="0px" y="0px" viewBox="0 0 512.001 512.001" style="enable-background:new 0 0 512.001 512.001;" xml:space="preserve" width="512px" height="512px">
<g>
	<g>
		<path d="M411.198,32.339C361.793,7.637,299.854-1.233,244.897,0.143c-2.814-0.181-4.956-0.274-7.245,0.249    C186.151,2.538,138.11,13.686,100.804,32.34c-45.01,22.504-69.797,53.637-69.797,87.661v89.998    c0,34.023,24.788,65.155,69.797,87.661c38.114,19.057,87.431,30.283,140.197,32.076v62.258h-26.364l-16.818-16.817    c-17.544-17.545-46.09-17.545-63.633,0c-16.951,16.951-17.525,44.171-1.721,61.815c-15.805,17.646-15.23,44.866,1.721,61.815    c17.588,17.589,46.043,17.592,63.633,0l16.818-16.817h82.727l16.818,16.817c17.588,17.589,46.043,17.592,63.633,0    c16.951-16.951,17.525-44.171,1.721-61.815c15.805-17.646,15.23-44.866-1.721-61.815c-17.544-17.545-46.09-17.545-63.633,0    l-16.818,16.817h-26.364v-62.258c52.767-1.793,102.083-13.02,140.197-32.076c45.01-22.504,69.797-53.637,69.797-87.661v-89.998    C480.995,85.976,456.208,54.844,411.198,32.339z M293.921,31.764c39.264,3.689,75.247,13.101,103.86,27.408    C431.6,76.081,450.996,98.251,450.996,120c0,16.147-10.7,32.524-30.047,46.811c0.027-0.603,0.048-1.206,0.048-1.812    c0-22.575-18.951-42.588-53.362-56.353c-21.289-8.516-47.399-14.306-75.711-16.969C297.668,82.477,301,71.623,301,60.001    C301,49.798,298.433,40.185,293.921,31.764z M114.22,59.171c34.857-17.43,80.649-27.596,129.989-28.996    c15.039,1.606,26.791,14.368,26.791,29.825c0,16.542-13.458,29.999-29.999,29.999c-1.25,0-2.458,0.17-3.619,0.458    c-34.94,1.661-67.45,7.962-93.016,18.188c-34.411,13.765-53.362,33.777-53.362,56.353c0,0.606,0.02,1.209,0.048,1.812    c-19.347-14.287-30.047-30.664-30.047-46.811C61.006,98.251,80.402,76.081,114.22,59.171z M181.003,292.854    c-24.779-4.944-47.463-12.369-66.782-22.028c-33.818-16.91-53.215-39.081-53.215-60.828v-29.059    c30.957,28.556,78.394,44.819,119.997,52.436V292.854z M211.002,297.506v-59.841c9.836,1.031,19.853,1.727,29.999,2.071v59.988    C230.821,299.356,220.8,298.61,211.002,297.506z M303.579,421.992L303.579,421.992c3.979,0,7.793-1.581,10.606-4.394l21.21-21.21    c5.866-5.865,15.343-5.865,21.208,0c5.865,5.865,5.866,15.342,0,21.208l-8.789,8.789c-5.858,5.858-5.858,15.355,0,21.212    l8.789,8.789c5.847,5.847,5.847,15.362,0,21.208c-5.866,5.865-15.343,5.865-21.208,0l-21.21-21.21    c-2.813-2.813-6.628-4.394-10.606-4.394h-95.154c-3.979,0-7.793,1.581-10.606,4.394l-21.21,21.21    c-5.866,5.865-15.343,5.865-21.208,0c-5.847-5.847-5.847-15.362,0-21.208l8.789-8.789c5.858-5.858,5.858-15.355,0-21.212    l-8.789-8.789c-5.864-5.865-5.866-15.343,0-21.208c5.866-5.865,15.343-5.865,21.208,0l21.21,21.21    c2.813,2.813,6.628,4.394,10.606,4.394H303.579z M301,297.506c-9.798,1.104-19.817,1.85-29.999,2.219v-59.988    c10.147-0.345,20.163-1.04,29.999-2.071V297.506z M312.857,205.341c-17.647,3.044-36.901,4.657-56.857,4.657    s-39.21-1.613-56.857-4.657c-0.176-0.038-0.357-0.063-0.535-0.094c-15.927-2.779-30.536-6.723-43.101-11.749    c-20.961-8.384-34.504-19.57-34.504-28.499s13.544-20.115,34.504-28.499c26.601-10.64,62.29-16.5,100.492-16.5    c38.203,0,73.892,5.86,100.492,16.5c20.96,8.384,34.504,19.57,34.504,28.499s-13.544,20.115-34.504,28.499    c-12.565,5.026-27.174,8.97-43.101,11.749C313.213,205.278,313.033,205.304,312.857,205.341z M450.997,209.996    c-0.001,21.748-19.397,43.92-53.215,60.829c-19.32,9.661-42.003,17.085-66.782,22.028v-59.481    c41.589-7.613,89.034-23.873,119.997-52.436V209.996z" fill="#FFFFFF"/>
	</g>
</g>
<g>
</g>
<g>
</g>
<g>
</g>
<g>
</g>
<g>
</g>
<g>
</g>
<g>
</g>
<g>
</g>
<g>
</g>
<g>
</g>
<g>
</g>
<g>
</g>
<g>
</g>
<g>
</g>
<g>
</g>
</svg>
